<svg width="16" height="16" viewBox="0 0 16 16" fill="none" xmlns="http://www.w3.org/2000/svg">
<path d="M5.66732 9.77782C5.66732 10.6369 6.36376 11.3334 7.22287 11.3334H8.66732C9.58779 11.3334 10.334 10.5872 10.334 9.66671C10.334 8.74623 9.58779 8.00004 8.66732 8.00004H7.33398C6.41351 8.00004 5.66732 7.25385 5.66732 6.33337C5.66732 5.4129 6.41351 4.66671 7.33398 4.66671H8.77843C9.63754 4.66671 10.334 5.36315 10.334 6.22226M8.00065 3.66671V4.66671M8.00065 11.3334V12.3334M14.6673 8.00004C14.6673 11.6819 11.6826 14.6667 8.00065 14.6667C4.31875 14.6667 1.33398 11.6819 1.33398 8.00004C1.33398 4.31814 4.31875 1.33337 8.00065 1.33337C11.6826 1.33337 14.6673 4.31814 14.6673 8.00004Z" stroke="#7B8EC8" stroke-linecap="round" stroke-linejoin="round"/>
</svg>
